<?xml version="1.0" encoding="UTF-8"?>
<svg id="Capa_2" data-name="Capa 2" xmlns="http://www.w3.org/2000/svg" xmlns:xlink="http://www.w3.org/1999/xlink" viewBox="0 0 1926 109">
  <defs>
    <style>
      .cls-1 {
        fill: #c1b286;
      }

      .cls-2 {
        fill: #503625;
      }

      .cls-3 {
        fill: #7f5a42;
      }

      .cls-4 {
        fill: none;
      }

      .cls-5 {
        fill: #6b4b36;
      }

      .cls-6 {
        fill: #6d4c38;
      }

      .cls-7 {
        fill: #28150b;
      }

      .cls-8 {
        fill: #7e5b43;
      }

      .cls-9 {
        fill: #694b38;
      }

      .cls-10 {
        fill: #483122;
      }

      .cls-11 {
        fill: #7e5b44;
      }

      .cls-12 {
        fill: #7f5b43;
      }

      .cls-13 {
        fill: #6d4b36;
      }

      .cls-14 {
        fill: #8f825d;
      }

      .cls-15 {
        clip-path: url(#clippath);
      }

      .cls-16 {
        fill: #5e412f;
      }
    </style>
    <clipPath id="clippath">
      <rect class="cls-4" width="1926" height="109"/>
    </clipPath>
  </defs>
  <g id="Capa_1-2" data-name="Capa 1">
    <g class="cls-15">
      <g>
        <path class="cls-10" d="M1918.43,109.28c-9.74,4.18-21.91,2.96-33.32,2.96-120.84,0-241.91,2.04-362.47-.65-176.76-3.94-353.45-.21-530.08-2.45-307.9-3.89-615.86-2.51-923.8-2.98-18.88-.03-37.72-1.85-56.62-2.65-9.75-.42-15-2.28-16.7-7.01-6.15-17.17-13.07-34.28-19.69-51.41-3.06-2.23-3.56-4.39.99-6.38,22.54.59,35.71,7.45,47.97,14.98,8.77,7.01,8.65,14.97,11.2,22.6,3.66,10.97,15.99,15.73,40.88,15.51,25.56-.22,50.29-3.24,75.94-3.09,343.62,2.04,687.15-2.51,1030.72-3.7,209.89-.73,419.83-1.2,629.74-2.12,12.81-.06,25.25-1.3,37.87-1.87,23-1.04,46.64-3.15,67.87,3.58,12.55,8.28,11.5,16.51-.52,24.68Z"/>
        <path class="cls-16" d="M1912.39,1.11c22.32,22.57,10.86,46.08,9.02,69.31-.41,5.24-2.23,10.46-3.4,15.69-208.39,5.23-417.12-.02-625.4,3.56-119.63,2.06-239.06,1.46-358.55,1.99-262.51,1.17-524.98,4.72-787.55,3.23-30.5-.17-60.59,3.66-91.53,2.91-17.04-.41-27.36-1.43-28.73-10.94-1.72-11.99-7.75-23.84-11.93-35.76-8.45-12.43,10.62-16.48,29.72-20.55,4.97-.61,10.03-.73,15.14-.51,14.76,2.02,29.35,1.18,43.9-.62,41.39-1.49,83.34,2.24,124.29-2.97,3.69-.19,7.4-.24,11.11-.22,27.68-1.67,55.68-1.84,83.31-3.83,177.39-1.47,354.37-8.49,531.9-7.84,4.31-7.56,24.08-6.68,35.31-6.56,15.78.17,29.89,6.26,45.64,5.9,27.95-3.16,56.43-3.95,85.04-3.73,84.46.66,99.83-12.9,184.32-11.17,9.53.2,74.78.36,84-1,8.34-.31,34.66.29,43,0,84.9-2.93,159.8-2.13,245-1,15.76.21,39.41,2.62,55,1,11.88-.55,21.32,3.21,33.23,3.58,52.2,1.73,104.38,3.47,156.18-1.82,30.88-2.94,61.38-.08,91.98,1.35Z"/>
        <path class="cls-5" d="M46.29,33.46c-12.56,5.16-28.4,9.08-31.97,17.65-16.58-1.28-26.52-7.14-38.36-11.69.77-13.55,22.02-17.76,45.6-19.63,16.28-1.29,33.34-.5,50.05-.63-6.11,10.94-23.02,5.65-34.72,5.91,4.82,1.48,13.04,3.38,9.41,8.38Z"/>
        <path class="cls-12" d="M854.58,18.9c-30.96,4.84-63.69,1.86-94.57,1.96-146.86.5-293.13,7.89-440.01,6.79-11.13-3.51-25.36-6.15-19.08-14.47,158.79-2.07,317.59-4.15,476.38-6.22,23.73-2.36,47.39-.86,71.14.09,29.33,1.18,19.06,6.28,6.14,11.85Z"/>
        <path class="cls-3" d="M1147.73-1.25c41.99,3.78,83.67,8.49,126.84,8.57,12.97.03,27.53-1.55,35.45,5.62-107.16,1.39-214.3,3.18-321.47,3.67-12.56.06-22.5,5.09-34.93,2.26-7.68-3.04-24.27-2.69-19.68-10.43,4.14-6.98,17.26-5.14,28.04-5.56,20.11-.78,40.61,1.88,60.41-1.5,41.62-2.52,83.37-3.6,125.33-2.63Z"/>
        <path class="cls-11" d="M1636.28,7.18c-18.66-5.18-43.6-1.73-60.35-10.42,12.37-3.35,29.42,1.39,41.33-3.75,72.48-1.03,144.99-1.81,217.44-3.22,29.44-.57,55.15,2.89,78.07,11.32-28.59,6.7-59.21,1.64-88.67,3.29-38.87,3.21-78.07.44-117.05,1.45-13.23.34-26.81-1.43-39.66,1.34-10.37,0-20.74,0-31.11,0Z"/>
        <path class="cls-8" d="M46.29,33.46c-5.61-3.35-11.21-6.7-17.57-10.5,10.76-4.12,30.22,1.91,42.89-3.79,52.97-1.68,105.81-4.92,159.11-2.94,10.68,3.98,28.53,7.29,6.45,14.36-2.11,0-4.23.02-6.34.03-34.58,3.22-69.54.51-104.26,1.47-11.42.32-23.4-1.4-34.1,1.8-11.23,1.5-22.43,1.94-33.53-.26-4.21-.05-8.43-.1-12.64-.16Z"/>
        <path class="cls-9" d="M1022.4,1.38c-16.84,5.66-36.07,1.86-54.07,2.93-9.87.58-22.1-1.36-27.42,4.23-5.21,5.47,10.77,6.22,12.72,10.33-27.21.01-54.42.02-81.63.03,3.8-4.6,13.49-8.67-9.27-9.72-22.25-1.03-44.54-1.3-66.76-2.22,4.86-.75,9.68-2.07,14.59-2.16,70.6-1.24,141.22-2.31,211.84-3.42Z"/>
        <path class="cls-13" d="M237.16,30.58c10.9-6.02-5.28-9.48-6.45-14.36,23.42-.94,47.31.4,70.21-3.04,6.36,4.83,12.72,9.65,19.08,14.48-27.3,2.83-54.97,3.46-82.84,2.93Z"/>
        <path class="cls-14" d="M116.17,68.59c-11.92-1.43-14.72-4.27-3.65-7.52,8.72-2.56,18.26-1.02,27.17,1.02,19.41,4.44,36.87,6.68,41.07-7.35,1.32-4.39,8.85-6.34,18.37-6.53,9.07,11.64,20.17,22.62,44.81,29.26-5.56,3.03-14.87,3.98-20.22,2.32-28.9-8.96-65.75-3-94.71-11.16-4.3,1.68-8.58,1.68-12.84-.03Z"/>
        <path class="cls-1" d="M243.94,77.47c-39.43-2.53-49.68-9.22-44.81-29.26,23.77,1.63,36.82,9.76,50.49,17.5,7.36,4.85,3,8.5-5.67,11.72v.04Z"/>
        <path class="cls-2" d="M116.17,68.59c4.28.01,8.56.02,12.84.03,2.39,6.67-1.47,14.66-16.56,13.16-17.46-1.74-23.74-10.57-23.28-19.94,11.74,1.59,7.13,14.56,27.01,6.75Z"/>
        <path class="cls-6" d="M1667.39,7.18c31.92-5.9,65.2-1.75,97.78-2.73,19.56-.59,39.28-.07,58.93-.05-29.78,6.05-61.05,1.76-91.56,2.73-21.62.69-43.43.08-65.15.05Z"/>
        <path class="cls-13" d="M90.56,33.46c46.23-6.34,93.57-1.21,140.26-2.85-43.97,6.25-89.11,1.31-133.56,2.94-2.31,1.15-4.55,1.18-6.7-.09Z"/>
        <path class="cls-5" d="M90.56,33.46c2.23.03,4.47.06,6.7.09-12.74,4.16-25.52,4.17-38.33.06,10.54-.05,21.09-.1,31.63-.15Z"/>
        <path class="cls-14" d="M243.95,77.43c4.94-3.6,7.48-7.44,5.67-11.72,9.11,5.02,10.86,9.3-5.67,11.72Z"/>
        <path class="cls-7" d="M1918.43,109.28c-.14-7.73-.28-15.45-.42-23.18-11.76-5.45-8.7-12.04-8.57-18.83.4-20.85,10.42-42.05-8.72-62.31-19.07-8.43-43.14-9.1-67.56-9.32-74.82-.67-149.28,5.22-224.25,2.58-13.61-1.3-27.73-2.22-41.06-.89-82.59,8.27-166.77,2.95-250.11,6.14-59.47,2.28-120.31-1.66-180.54.69-43.37.29-86.83-.14-129.98,2.75-34.82-1.47-69.48-2.84-103.79,2.29-13.2,1.97-27.18.51-40.95-.08-28.57-1.22-57.16-.97-84.96,3.09-81.37-.04-162.47,4.54-243.83,3.78-76.11-.71-151.92,1.94-227.86,2.67-24.65,4.36-50.2,2.07-75.42,2.17-50.78,1.49-101.8,1.08-152.42,3.83-40.96-5.22-74.01,1.09-102.05,14.73-.06,1.89-.12,3.77-.19,5.66-20.62-9.01-5.43.57,7.13-22.42C-8,6,31.04,13.03,58.4,13.03c63.38-.01,126.82.24,190.1-1.04,20.5-.41,41.16-4.73,61.15-7.28,20.54-2.62,38.15-1.98,57.92-1.66,62.43,1.02,125.43,3.29,187.31.64,74.22-3.18,148.11-1.52,222.11-2.1,59.26-.47,117.61-.88,175.77-8.61,30.82-4.1,65.73.84,98.9,1.03,21.14.12,41.63-1.67,62.55-1.72,29.17-.06,57.92-2.2,87.74-.95,83.27,3.48,166.43-3.33,249.96-1.76,107.95,2.03,215.66-3.97,323.76-3.34,32.17.18,65.14-2.52,97.91-2.25,45.64.38,54.61,5.48,59.69,26.53,6.79,28.12,1.45,56.23,3.46,84.33.46,6.42.93,13.11-18.29,14.42Z"/>
        <rect class="cls-7" x="0" y="-8" width="1060" height="13"/>
        <rect class="cls-7" x="0" y="1" width="310" height="16"/>
      </g>
    </g>
  </g>
</svg>