<?xml version="1.0" encoding="UTF-8"?>
<svg id="Capa_2" data-name="Capa 2" xmlns="http://www.w3.org/2000/svg" xmlns:xlink="http://www.w3.org/1999/xlink" viewBox="0 0 1927 984">
  <defs>
    <style>
      .cls-1 {
        fill: #bc5243;
      }

      .cls-2 {
        fill: #f2d3b7;
      }

      .cls-3 {
        fill: #fde4cf;
      }

      .cls-4 {
        fill: #fbede0;
      }

      .cls-5 {
        fill: #dcc1ab;
      }

      .cls-6 {
        fill: #be5145;
      }

      .cls-7 {
        fill: #c37661;
      }

      .cls-8 {
        fill: #f5dbc7;
      }

      .cls-9 {
        fill: #d0915f;
      }

      .cls-10 {
        fill: #e7c4a8;
      }

      .cls-11 {
        fill: #b75445;
      }

      .cls-12 {
        fill: #5b4235;
      }

      .cls-13 {
        fill: #aa6331;
      }

      .cls-14 {
        fill: #cb976c;
      }

      .cls-15 {
        fill: #78604f;
      }

      .cls-16 {
        fill: #b25d54;
      }

      .cls-17 {
        fill: none;
      }

      .cls-18 {
        fill: #d7c5b8;
      }

      .cls-19 {
        fill: #bd5144;
      }

      .cls-20 {
        fill: #d4a281;
      }

      .cls-21 {
        fill: #5d4230;
      }

      .cls-22 {
        fill: #f8d9c1;
      }

      .cls-23 {
        fill: #d4b9a4;
      }

      .cls-24 {
        fill: #f2d3b8;
      }

      .cls-25 {
        fill: #cda183;
      }

      .cls-26 {
        fill: #dbb99f;
      }

      .cls-27 {
        fill: #cd5c4e;
      }

      .cls-28 {
        fill: #fde0ca;
      }

      .cls-29 {
        fill: #fce7d4;
      }

      .cls-30 {
        fill: #fbe3c9;
      }

      .cls-31 {
        fill: #f9ece0;
      }

      .cls-32 {
        fill: #edc19c;
      }

      .cls-33 {
        fill: #664128;
      }

      .cls-34 {
        fill: #b24f42;
      }

      .cls-35 {
        fill: #f9ede1;
      }

      .cls-36 {
        fill: #5d2714;
      }

      .cls-37 {
        fill: #d8ac8f;
      }

      .cls-38 {
        fill: #d5baa3;
      }

      .cls-39 {
        fill: #c98854;
      }

      .cls-40 {
        fill: #f7ede0;
      }

      .cls-41 {
        fill: #d9ae93;
      }

      .cls-42 {
        fill: #60412c;
      }

      .cls-43 {
        fill: #f9d9c0;
      }

      .cls-44 {
        fill: #faede1;
      }

      .cls-45 {
        fill: #75665a;
      }

      .cls-46 {
        fill: #2b1008;
      }

      .cls-47 {
        clip-path: url(#clippath);
      }

      .cls-48 {
        fill: #d0b39c;
      }

      .cls-49 {
        fill: #f7e9db;
      }
    </style>
    <clipPath id="clippath">
      <rect class="cls-17" width="1927" height="984"/>
    </clipPath>
  </defs>
  <g id="Capa_1-2" data-name="Capa 1">
    <g class="cls-47">
      <g>
        <path class="cls-21" d="M-13.26,26.41C-4.3-23.27,5.01-28.14,79.34-31.77c292.27-14.28,584.94-6.32,877.22-3.75,145.38,1.28,291.35-1.34,436.39,5.54,157.98,7.49,316.29,1.78,474.22,9.91,39.83,2.05,58.77,9.98,66.32,33.98,30.32,31.77,14.58,69.47,30.06,103.16,5.84,18.85,1.4,38.33,8.04,57.14,12.98,161.83,24.56,323.72,18.96,485.77-2.4,69.35-1.64,138.87-14.85,208.1-6,31.43,1.11,63.94-13.34,95.08-3.44,31.01-30.46,43.47-75.24,47.74-75.58,7.22-150.71,7-226.23,1.96-24.85-5.43-50.62-5.48-76.46-6.98-137.88-8.01-276.09-5.52-389.25-6,66.75,0,158.43-.14,250.1.15,14.11.04,29.28-2.96,42.18,3.85-7.43,17.34-29.79,18.08-50.18,18.33-91.33,1.13-182.68.91-274.02.16-16.32-.13-31.88-2.43-43.75-10.75-4.71-11.62-18.66-5-27.58-5.1-85.19-.98-170.43.95-255.62-1.25-61.59-4.94-123.5-5.01-185.41-5.75-19.55-.23-43.25,3.95-52.9-13.91,8.81-11.97,25.55-11.56,41.79-11.56,103.56.02,207.87-5.19,310.51,1.43,133.85,8.63,267.22,1.85,400.73,4.28,107.5,1.96,214.97-8.08,322.81-5.99,19.47.38,38.79-2.69,56.71-7.73,27.17-7.64,51.79-7.32,78.61,2.56,31.74,11.7,82.94-5.68,92.75-29.46,4.54-11.01-8.46-12.07-18.98-14.46-55.83-21.57-57.55-31.61-34.56-72.04,21.81-38.36,43.94-77.58,38.56-120.23,6.02-77.05-1.54-154.22,5.88-231.17-9.83-45.8-8.52-91.92-8.24-138,.42-69.69-8.36-139.02-17.58-208.35-2.17-16.32-6.94-31.22-23.43-44.5-17.62-14.2-17.4-31.29-12.48-48.99,8.23-29.61,3.35-33.13-42.5-34.4-57.82-1.6-116.41,3.81-173.1-8.46-65.5-15.34-134.55-8.13-201.7-13.03-170.33-12.43-342.23-3.83-513.12-8.77-172.84-4.99-345.54-4.14-518.31-5.75-64.41-.6-128.16,5.69-193.27,1.91C145.61-9.61,99.28.46,73.84,30.38c-2.56,5.02-6.18,9.67-11.14,13.81-28.63,6.34-47.41-10.46-72.04-13.68-1.32-1.35-2.62-2.72-3.92-4.1Z"/>
        <path class="cls-12" d="M-12.55,925.42c-.26-4.27-.51-8.53-.77-12.8-5.98-132.89-22.2-265.52-19.8-398.66,2.15-119.22.32-238.48.24-357.71,12.64-21.52,14.58-41.56-3.11-63.72-20.17-25.27-5.48-58.6,22.74-66.11,0,0,2.37,2.02,2.37,2.02,35.9,1.02,56.51,14.26,59.53,37.14,1.7,12.85,12.16,21.6,20.92,31.65,13.23,25.53-13.2,43.73-30.15,61.95-17.21,18.5-25.79,36.43-23.45,57.62,6.91,62.51-17.93,124.75-7.66,186.88,10.68,64.57,12.37,129.29,6.48,193.44-10.99,119.72,12.24,237.95,23.03,356.77-.79,7.67-3.88,14.6-14.44,18.99-12.98,2.73-20.24-2.06-26.01-8.8l.14.22c-13.16-11.83,2.46-26.95-10.04-38.86Z"/>
        <path class="cls-20" d="M1903.64,737.97c1.21,27.19,1.55,52.3-21.19,78.88-14.18,16.58-12.68,38.69-34.01,58.07-22.94,20.84,24.03,29.16,40.41,42.98,17.8,18.53,5.68,33.56-15.39,45.36-21.19,11.87-48.64,16.84-71.83,4.8-35.94-18.65-67.63-15.84-101.12,1.32-11.85,6.07-26.5,7.89-41.44,7.69-145.5-1.95-290.83,4.23-436.47,2.54-103.39-1.2-206.96-1.4-310.47-2.04-168.36-1.04-336.82-1.52-504.92-6.37-99.3-2.87-199.56-2.07-298.09-15.99-37.13-5.24-57.22-17.09-65.28-40.78-10.31-30.28-13.66-59.97,15.04-86.93,12.78-12.01,10.34-21.35-5.02-31.1-14.44-9.16-24.01-20.73-25.53-34.05-7.83-68.62-18.7-137.22-8.2-206.19,14.92-30.1,12.21-61.25,10.85-92.1-2.96-67.12,8.62-134.46-7.07-201.27-7.06-31.23-10.45-61.52,36.24-82.92,15.65-7.17,6.8-16.95-.56-25.5-13.09-15.21-5.25-23.97,19.4-27.34,13.37,1.26,21.38-4.17,28.67-10.49,6.88-5.67,14.65-10.6,24.46-13.98,77.27-9.35,154.94-11.59,233.17-5.99,24.53,1.76,55.46,9.21,52.85-20.54-3.64-10.84,13.98-20.26,5.59-30.98-8.33-10.65-18.62-19.79-41.26-16.29-17.06,2.64-33.45,8.26-51.85,6.64-15.93-3.59-36.5.38-46.72-12.65-.83-3.9.02-7.56,2.51-11.12,16.27-16.7,42.21-13.56,65.83-13.61,164.84-.34,329.68-.13,494.53-.18,22.61,0,45.28.58,67.58-2.83,231.98-5.51,463.29,9.92,695.09,9.44,5.5-.01,8.76,2.26,12.79,3.88,64.1,7.63,129,3.83,193.49,5.96,43.53,1.44,59.62,19.53,37.65,44.43-17.16,19.45-19.98,36.51,12.08,49.56,12.67,5.16,16.98,11.55,18.4,20.82,18.3,119.75,19.97,240.02,25.57,360.16.14,3-2.96,6.07-4.56,9.11-7.98,79.84-10.03,159.69-1.16,239.57Z"/>
        <path class="cls-42" d="M94.43,130.48c-9.99,3.18-19.97,6.35-30.17,9.6,43.15,29.12,41.54,33.58-12.08,57.62-32.27,14.46-12.17,36.85-15.62,55.67,9.56,50.99,3.71,102.2,3.73,153.28.02,50.03,5.79,100.18-3.5,150.13-5.3,69.01,5.38,137.74,8.08,206.6.48,12.32,7.62,18.51,23.78,24.81,40.8,15.89,42.28,29.71,4.84,47.67-15.76,7.56-20.18,15.02-18.9,26.71,10.22,92.99,4.97,80.32,123.97,88.64,148.3,10.37,297.49,11.34,446.48,14.31,335.49,6.7,671,6.03,1006.54,3.3,25.51-.21,48.04-.37,68.67-16.47,19.4-15.14,51.63-17.1,80.55-5.57,69.12,27.55,89.63,22.11,108.03-28.86,10.42-10.47,21.06-13.06,32.65-.66,10.11,10.82,17.92,26.4.96,31.83-25.29,8.1-37.61,25.71-65.14,31.67-21.04,4.56-37.66,10.45-56.47-3.05-10.97-7.87-31.88-14.21-43.85-7.07-32.77,19.56-70.62,12.09-106.63,12.85-130.44,2.73-260.9,5.16-391.39,6.53-219.65,2.31-439.01-10.66-658.73-6.28-5.05,4.21-11.47,7.01-19.3,8.37-17.79,1.75-35.69,1.06-53.53.89-4.89-.08-9.76-.46-14.56-1.07-22.46-6.97-45.58-5.99-68.9-2.3-23.77-.79-47.62,1.88-71.36-.66-42.34-14.05-86.61-6.93-130.39-5.27-9.93-.03-19.85.1-29.76-.44-21.56-4.47-44.37-1.34-66.1-4.75-4.75-.72-9.54-1.36-14.35-1.89-22.7-5.07-44.79-12.13-70.04-7.42-16.32,3.05-28-1.66-35.71-11.29-22.23-37.58-6.41-78.01-19.51-116.21-33.22-96.8.27-194.48-9.34-291.6-4.55-45.97-.58-91.93-7.82-138.22-11.86-75.77,14.29-151.8,7.9-228.37-1.44-17.24,30.78-36.14,49.06-53.55,13.06-12.43,18.79-24.66,8.63-38.92-1.19-6.28,4.64-8.76,12.48-10.19,13.87-.7,25.43,2.65,35.47,8.79,17.75,15.53,15.15,29.19-8.67,40.84Z"/>
        <path class="cls-33" d="M1622.17,8.36c-198.37-2.33-396.74-4.77-595.12-6.91-38.69-.42-77.41.32-116.11.52-81.9,5.2-163.98,1.4-245.97,2.14-78.92.71-157.9,1.06-236.8-.13-66.08-1-131.55,2.6-197.02,6.73-32.51.76-65.54-2.65-97.3,4.78-29.56-.57-49.71,16.32-77.68,18.77-2.76-18,7.08-25.9,34.31-35.3,79.02-27.27,162.19-13.5,242.62-16.03,143.62-4.51,288.27-6.19,431.6.02,166.47,7.21,332.77.37,498.78,5.93,110.9,3.71,221.49,11.97,332.75,12.33,10.09.03,19.09,1.89,25.95,7.14Z"/>
        <path class="cls-20" d="M56.17,34.27C67.41,14.48,86.86,3.19,120.67,6.78c30.89-6.43,60.08.44,90.26,3.67,19.26,2.06,41.05,1.93,60.17-4.82,21.64,1.28,7.39,15.87,17.92,21.28l-.04-.04c4.7,2.36,10.92,2.53,15.74,4.72,7.42,4.51,16.91,6.44,25.94,8.99,7.82,2.47,14.7,5.69,19.33,10.67,1.45,2.7,1.73,5.47.75,8.26-3.68,5.02-10.51,8.29-15.59,12.48-.3,20.37-14.34,30.63-45.48,24.74-29.67-5.61-57.5,3.74-86.22,2.77-21.36-.72-43.52-3.89-53.13-18.48-10.36-15.74,3.57-26.18,20.38-33.45-18.2,6.02-25.82,18.2-27.26,32.36-1.09,10.77-.37,21.61-10.18,31.03-6.42,4.27-12.84,8.55-19.27,12.82-11.51-9.42,3.31-25.8-19.34-32.27-9.67-2.32-19.33-4.65-29-6.97-27.89-9.87-23.04-23.66-10.39-38.38.3-3.96.6-7.92.9-11.88Z"/>
        <path class="cls-41" d="M1903.64,737.97c-10.45-6.7-9.51-15.41-9.52-23.92-.03-62.93-.06-125.87.04-188.8.01-9.51-1.69-19.43,10.64-26.84,6.06,79.87,2.98,159.72-1.16,239.57Z"/>
        <path class="cls-21" d="M55.28,46.16c3.28,12.82-6.83,27.23,10.39,38.38-3.5,2.17-7.01,4.34-10.51,6.5-15.65,4.37-20.29-.72-19.83-10.19,1.18-24.04-2.38-45.83-50.13-46.64,1.3-1.93,2.6-3.86,3.91-5.78,28.41-4.54,53.35-3.4,66.17,17.73Z"/>
        <path class="cls-20" d="M133.27,110.96c-21.53-24.62-.88-44.66,21.36-60.84,18.49-13.45,46.09-21.83,78.04-10.71-11.23,11.37-27.98,5.93-40.4,9.68-16.4,4.95-36.55,7.94-34.8,22.59,1.73,14.43,22.77,17.67,39.72,18.93,40.94,3.05,81.48-10.28,127.9,3.31q-20.66-23.44,2.79-28.21c31.51,7.48,60.51,23.28,97.38,12.96,16.76-4.16,23.51.86,14.78,10.14-15.89,16.89-39.36,23.86-70.54,19.12-78.98-12.02-157.57-1.33-236.24,3.04Z"/>
        <path class="cls-20" d="M289.01,26.9c-6.58-6.41-13.16-12.82-19.74-19.24-17.92,5.25-36.07,11.35-47.84-5.8,229.84-4.75,459.67-3.15,689.51.1-17.15,8.93-37.31,5.36-56.2,5.39-169.68.26-339.35.04-509.03.27-23.19.03-51.2-4.5-56.7,19.26Z"/>
        <path class="cls-20" d="M425.26,78.67c-35.76,22.22-56.01,19.52-97.38-12.96,6.5-2.16,13-4.32,19.5-6.48q36.27,2.67,63.18-4.09c-20.11-18.36-43.06,4.03-63.25-2.36-6.48-2.15-12.96-4.3-19.44-6.46-5.19-3.25-7.81-7.18-7.15-11.97,1.34-2.91,3.67-5.39,7.15-7.39,9.42-1.02,19.73-.75,28.1-3.3,29.17-8.89,54.58-8.61,77.06,8.83,22.81,17.68,1.47,31.31-7.76,46.19Z"/>
        <path class="cls-37" d="M36.79,556.78c-5.05-101.14-5.68-202.28-.23-303.42,8.8,5.9,9.18,13.41,9.18,21.02-.02,87.1-.01,174.2,0,261.31,0,7.6-.31,15.12-8.95,21.09Z"/>
        <path class="cls-25" d="M94.66,91.51c28.57,4.91,16.26,20.63,19.34,32.28-4.86,4.37-6.51,12.89-19.57,6.69,15.66-12.95,13.62-25.94.23-38.97Z"/>
        <path class="cls-20" d="M327.85,26.95v6.43c-9.67,5.19-19.36,5.63-29.09.06-3.27-2.19-6.53-4.38-9.8-6.58,12.99-5.53,25.95-5.53,38.88.08Z"/>
        <path class="cls-20" d="M221.43,1.87c14.09,8.7,31.68,4.64,47.84,5.79-4.22,6.7,15.46,19.35-22.97,15.45-42.28-4.29-82.38-16.58-125.62-16.34C153.57-1.09,187.55.86,221.43,1.87Z"/>
        <path class="cls-20" d="M347.29,52.77c17.81-16.2,39.05-27.62,67.59-11.67,12.33,6.89,11.74,15.43-2.79,26.01-31.33,22.81-46.26,5.33-64.72-7.88-.04-2.15-.07-4.3-.08-6.45Z"/>
        <path class="cls-20" d="M298.77,33.45c9.7-.02,19.39-.04,29.09-.06v12.93c-10.95-3.03-36.21,8.22-29.09-12.87Z"/>
      </g>
    </g>
    <g>
      <rect class="cls-11" x="979.81" y="195" width="137" height="43"/>
      <path class="cls-43" d="M1039.7,782.97c-1.59-4.06.02-8.15-.08-12.22-2.22-3.25-1.16-6.65-.5-10.03,1.1-2.54,1.59-5.27,2.21-7.88,1.32.04-.68-.01.24-.96.47-.48.26-.43-.48.35-2.33,2.45-3.85,5.68-6.98,7.38-11.46,20.05-31.65,23.99-51.75,28.05-16.82,3.4-26.27-8.52-36.23-18.39-3.81-3.78-6.35-6.11-10.66-1.92-18.44,17.9-41.4,16.61-64.21,14.75-16.26-1.33-32.62-.86-48.79-3.1-4.09-.57-7.11,1.63-10.62,2.62-3.24-1.05-4.08-3.65-4.31-6.64-.91-4.46-1.22-8.96-.77-13.49-1.34-18.78,7.28-36.19,6.97-55.11-.28-16.87,11.02-27.19,27.73-30.15,8.11-1.44,16.29-1.53,24.45-1.19,10.36.42,19.23-2.06,23.77-12.13,4.68-10.37,5.03-21.09-.81-31.3-3.59-6.28-8.87-11.13-14.51-15.63-5.06-4.03-10.41-7.73-15.02-12.28-11.21-11.06-11.11-20.74.2-31.35.99-.93,2.04-1.81,3.01-2.77,14.52-14.42,12.05-30.88-6.15-40.88-10.62-5.83-22.04-8.85-34.06-9.98-10.2-.95-20.32-2.42-29.37-7.79-9.71-5.77-11.23-12.83-4.76-22.06,8.77-12.5,7.7-16.67-6.11-22.84-5.55-2.48-10.89-5.44-17.34-5.49-7.82-.06-5.41-8.42-9.05-11.98-5.02-15.68-4.17-32.11-5.68-48.2-1.66-17.73-4.79-35.63-.26-53.44,3.8-7.8,8.66-6.36,14.2-1.79,1.12-3.57.7-8.67,6.09-9.83,4.35-.94,6.7,1.42,8.55,5.2.39.79,1.12-2.56,2.71-3.03,5.36-1.86,5.55,2.72,7.26,5.65,1.41,2.42,1.67,6.47,5.77,5.95,3.36-.42,2.8-4.16,3.26-4.73-3.45,5.54-4.91,5.58-8.89-.77-1.75-2.78-.9-9.31-7.59-6.02-6.58-3.78-12.56-5.6-18.14,2.19-2.8,3.91-5.77.77-8.19-1.84-6-6.44-3.93-14.63-5.01-22.15,1.82-30.01,10.66-58.58,17.96-87.46.58-2.3,1.6-4.47,3.13-6.33.56-.88,1.28-1.62,2.13-2.23,7.34-1.99,14.53-4.45,21.59-7.36,3.43,3.22,2.33,7.46,2.64,11.4q.03,25.35,25.58,25.36c50.33,0,100.66.35,150.98-.1,49.96-.44,99.91-1.42,149.88-.74,3.12.04,6.16.19,8.1-2.86,5.09-9.43,4.03-21.51,12.56-29.47,8.42,5.24,15.5,12.26,23.4,18.2,2.94,2.21,5.39,4.96,9.23,5.62,7.97-2.04,9.32-10.18,13.81-15.35,9.58-11.03,21.39-13.39,34.27-5.67,2.85,7.89-1.01,14.62-4.05,21.31-4.35,9.58-6.6,18.16,3.35,26.28,5.39,4.4,7.1,11.39,5.97,18.62-.58,3.69-.81,7.41-.63,11.15.6,12.7,6.12,19.13,18.52,21.74,3.33.7,6.7,1.03,10.08,1.25,9.11.61,16.24,4.4,20.69,12.61,4.36,6.58,1.94,14.05,2.8,21.08.54,3.4.4,6.79-.27,10.15-.88,4.46-7.17,13.55-7.82,11.36-.94-3.23,7.41-1.59,10.56,2.78,4.56,6.32,7.48,3.72,10.65-.99,2.47-3.67,4.95-7.35,7.92-10.65,5.26-5.86,11.19-10.1,19.65-7.97,8.66,2.18,13.33,7.63,13.56,16.72.03,1.34.42,2.69.8,4.04.16,1.04.32,2.05.32,3.08.05,110.2.33,220.41-.13,330.58-.69,5.23-4.15,7.38-9,8.15-15.49,2.47-25.68-4.55-28.63-19.82-.39-2.01-.74-4.02-1.23-6.01-2.74-11.15-5.29-12.02-13.83-4.59-3.35,2.91-6.81,5.64-10.42,8.22-8.25,5.89-16.38,7.5-25.47,1.35-4.73-3.2-10.11-5.72-16.04-6.23-13.35-1.15-24.01,6.25-27.69,19.18-1.03,3.6-1.47,7.36-2.55,10.95-4.3,14.31-17.91,18.03-28.25,7.12-2.97-3.14-2.44-1.69-4.67.16-6.59,5.48-13.34,10.36-14.78,19.81-1.5,9.81.55,18.35,7.59,25.33,8.35,8.28,8.47,8.16-3.24,12.39-25.09,3.23-50.52,2.45-75.49,6.87-16.37,2.9-30.71-1.87-43.64-11.77Z"/>
      <path class="cls-43" d="M700.09,165.4c20.42,1.92,37.66,11.66,54.67,22.08,3.67,2.25,2.12,4.13.51,6.4-7.21,15.82-16.53,30.5-24.57,45.88-11.7,22.38-16.2,46.83-20.24,71.42-3.88,23.57-4.32,47.49-3.83,71.11.85,40.78,3.97,81.5,12.09,121.71,6.09,30.15,16.93,58.87,24.77,88.47,5.93,22.37,10.27,45.14,17.24,67.26,6.37,20.22,5.15,41.08,4.22,61.85-.17,3.75-1.16,7.41-3.33,10.59-1.96,2.65-4.4,2.58-7.06,1.16-9.22-4.89-19.07-7.79-29.33-9.53-3.41-.58-5.71-3.37-8.6-5.01-1.69-1.15-2.93-2.76-4.31-4.49-2.11,4.69.78,12.58-8.21,12.58-6.48-1.55-8.46-6.03-8.34-12.21.17-8.85,1.02-17.67.61-26.55-1.39-30-7.71-59.31-12.95-88.72-9.53-53.57-18.98-106.9-20.92-161.67-1.85-52.35-.32-104.1,9.58-155.41,6.31-32.68,14.19-65.07,20.74-97.73,1.06-5.3,1.78-10.14-4.4-12.95-1.4-.64-3.12-1.9-2.43-3.87.81-2.34,3.09-2.38,5.14-2.34,2.99.06,5.98,1.74,8.96-.04Z"/>
      <path class="cls-29" d="M700.09,165.4c-3.23,3.39-7.93.67-13.38,3.65,13.87-1.73,12.98,4.5,10.98,13.43-4.07,18.13-9.73,36.16-12.62,54.2-6.53,40.87-16.66,81.05-18.59,122.95-1.77,38.53-.34,76.85,1.76,115,1.73,31.55,7.29,63.15,13.64,94.46,5.78,28.48,10.24,57.32,14.86,86.07,3.38,21.07,4.02,41.64,2.22,62.54-.54,6.24,5.46,5.13,7.43,8.29,1.27,1.34,1.47,2.93,1.14,4.66-1.6,4.88-5.83,6.39-10.11,7.66-12.89,3.84-24.94,9.08-34.2,19.37-1.51,1.68-3.37,3.93-6.05,2.51-2.42-1.28-2.63-3.88-2.07-6.3.84-3.68,1.19-7.37,1.09-11.14,13.16-10.41,12.83-24.45,11.25-39.26-3.95-37.16-4.38-74.56-7.49-111.8-2.09-25.03-3.27-50.15-4.75-75.24-1.38-23.4-3.22-46.75-5.28-70.11-1.87-21.25-2.26-42.63-3.43-63.95,1.58-15.92-2.02-31.61-2.04-47.48-.02-15.56-1.78-31.05-2.68-46.58-1.19-20.55-1.54-41.09.53-61.95.42-.19-.2-.3-.5.64-1.64,5.19,3.35,11.68-3.14,15.98-.42-16.55-.82-33.1-1.29-49.64-.13-4.5,2.31-7.59,5.21-10.55,15.98-16.36,35.31-21.6,57.5-17.38Z"/>
      <path class="cls-10" d="M759.45,733.91c4.45-32.48-.26-63.49-8.62-95.4-10.5-40.08-23.34-79.51-32.96-119.74-6.2-25.94-11.03-52.41-11.8-79.4-.57-20.33-4.21-40.68-3.48-60.91,1.37-38.25,1.65-76.86,13.77-113.84,8.51-25.98,21.29-49.73,38.92-70.75.17,6.97-4.93,12.99-3.65,20.17,3.26,4.27,7.4,1.15,11.16,1.45,4.18.33,9.94-2.22,11.1,5.01l-.38-.02c-2.22,2.27-4.97,3.81-8.08,3.75-10.71-.22-13.16,6.54-14.73,15.46-4.71,26.66-4.9,53.77-8.47,80.52-2.43,8.35-5.65,15.58-16.73,13.34-2.88-.58-4.86,1.81-6.84,3.78-2.07,2.06-1.61,8.37-7.65,4.57-1.03-.65-.7,2.58-.2,3.22,3.9,4.93,8.53,7.88,14.94,4.25,2.64-1.5,4.62-4.08,7.77-4.76,1.04,0,1.89.4,2.58,1.18,2.34,6.18.86,12.96,3.07,19.19.11,1.13.06,2.24-.08,3.36-1.34,19.32-3.14,38.64,1.47,57.78,2.19,7.57,3.36,15.27,1.89,23.09-.92,4.91.67,9.39,1.63,14,5.52,45.89,13.88,91.26,23.41,136.5,10.65,50.58,23.97,100.42,37.89,150.14.96,3.42,1.89,6.61-1.44,9.25-2.28.96-4.27.3-6.13-1.09-4.19-8.56-10.92-12.97-20.62-13.14-4.02-.07-7.77-1.87-11.35-3.76-2.33-1.62-4.84-3.08-6.15-5.8-.08-.46-.15-.93-.22-1.4Z"/>
      <path class="cls-11" d="M794.28,222.44c-.41-3.38,1.82-7.31-2.07-9.97-3.47,2.44-6.81,3.25-9.78-.76,8.54-.58,14.12-2.93,10.4-13.51-2.31-6.58,1.49-8.79,8.1-8.82,59.88-.34,119.76-1.01,179.64-1.4,44.93-.29,89.86-.32,134.78-.46,8.84.95,17.74.96,26.58,1.82,1.2,5.13-2.57,6.37-6.12,7.58-2.91.99-6.05,1.33-9.04.92-21.5-2.98-43.19-1.22-64.75-2.67-4.56-.31-9.59-1.8-12.87,3.23-.76.78-1.65,1.41-2.61,1.91-4.35,1.17-6.83,3.92-7.3,8.5-.17,1.66-.59,3.32-1.16,4.89-1.02,2.81-1.78,6.5-5.28,6.6-3.78.11-4.62-3.78-4.85-6.57-.61-7.55-5.06-11.95-11.17-15.28-1.04-3.33-2.72-4.18-6.67-4.01-33.42,1.41-66.89,1.56-100.32,2.04-15.87.23-31.84.94-47.59.16,8.06.42,15.95.84,23.76-.85,2.75.26,5.55-.13,8.23.75,2.02,1.15,3.12,2.83,2.93,5.21-10.18,4.78-3.56,14.94-6.98,21.91,1.33,2.11-7.82,3.76-.22,6.08,3.74-.83,7.51.18,11.24-.35,1.86-.39,3.6-1.25,5.49-1.52,2.95-.67,6.04-.31,9-1.13-7.86-12.71-6.57-18.86,4.54-21.95,3.65-1.39,5.49-5.05,8.73-7,.96-.48,1.95-.83,2.99-1.09,16.1-1.62,32.18-2.88,48.35-.95,9.11,1.09,18.13-1.41,27.24-.86,3.12.19,6.98-1.61,8.69,2.9,3.87,7.31,6.81,14.67,1.41,22.54-4.41,1.64-3.1-1.82-3.41-3.74-.51,2.27.39,4.32,1.54,6.31-.25,1.62-1.25,2.42-2.82,2.6-4.25-.98-4.56-4.43-4.99-7.85-.34-2.69-1.1-5.3-1.87-7.9-1.16-3.97-4.76-6.21-7.73-4.78-7.89,3.79-1.65,11.81-4.08,17.63-1.63,3.91,1.12,4.76,5.08,4.53,5.85-.35,11.93-.62,17.31,2.78.9,2.27.74,4.45-.47,6.57-3.42,4.19-8.22,4.3-13,4.37-22.03.28-44.05.16-66.08.79-13.22.38-26.26,2.27-39.44,2.66-3.54.1-6.7-.17-9.7-1.9-5.63-.74-11.01-2.74-16.9-2.65-7.95.12-11.04-4.03-8.78-10.6-1.07,4.54-1.29,12.1-10.48,9.64-4.67-1.25-8.23-4.27-3.19-9.48,8.18-6.02,5.62-13.62,3.18-21.2-1.26,6.9,2.37,14.61-3.52,20.74-.56.38-1.28.62-1.68,1.1-4.83,5.94-10.37,11.61-18.6,8.32-8.69-3.47-6.73-12.15-7-19.31-.19-4.97-1.11-9.97-.05-14.95,6.14-3.61,7.82.71,9,5.3,1.34,5.21.16,10.78,2.61,17.97,1.91-9.22.11-17.1,3.41-24.23,1.28-2.76-1.61-3.09-3.63-3.22-4.56-.3-8.84.21-11.61,4.54-.61,2.34-1.14,4.99-4.35,4.59-2.83-.35-3.61-2.75-4.04-5.22-.46-2.61,1.41-6.67-4.15-5.94-4.29.57-5.66,3.08-5.85,6.96-.2,4.09-.23,8.17.02,12.26,1.02,16.63,1.32,16.76,17.38,19.7,6.69,1.22,13.13,2.78,20.13,1.48,3.08-.57,9.13-1.08,6.86,6.06-8.38,3.44-17.73.41-26.07,4.04-1.35.18.37.09-.99.22-22.67,2.19-25.91-2.23-24.41-21.25.13-1.67.08-3.36-.94-4.83Z"/>
      <path class="cls-22" d="M649.01,382.09c1.35,13.72,3.32,27.42,3.93,41.17,1.99,44.72,7.05,89.22,8.7,133.99,1.17,31.82,4.26,63.58,6.15,95.4,1.38,23.29,2.04,46.7,5.26,69.92,1.58,11.43-7.78,16.64-16.12,21.71-.44.08-.87.16-1.31.25-1.04-27.35-2.05-54.71-3.15-82.06-.09-2.3-.73-4.58-1.11-6.87-2.37-6.56-1.67-13.2-.48-19.84-1.39-42.42-2.76-84.84-4.18-127.26-1.09-32.58-2.24-65.15-3.37-97.72,2.98-8.12,1.25-16.54,1.63-24.83.19-4.16-1.13-8.67,2.54-12.82,3.48,2.96,2.85,5.9,1.51,8.97Z"/>
      <path class="cls-9" d="M655.62,744.53c.41-.22.85-.3,1.31-.25,0,4.41,0,8.83,0,15.52,11.92-16.29,27.5-22.45,44.37-26.37,1.87-.43,3.5-1.93,5.23-2.93.97.06,1.84.41,2.61.99,6.87,7.68,7.31,7.64,16.58-1.63,3.56-1.56,7.22-1.46,10.94-.77,9.53,3.07,19.51,4.87,28.37,9.89,5.29,3.93,12.87,2.65,17.67,7.74,1.21,2.87,3.66,4.89,5.3,7.45,6.6,10.33,3.68,23.28-6.28,30.55-11.28,8.22-24.28,10.35-37.6,11.25-26.45,1.78-51.29-3.88-74.4-16.95-2.38-1.35-4.71-2.65-6.31-5.01-1.14-1.68-.58-7.4-4.98-2.36-4.08-2.83-4.85-6.61-3.18-11.08-.15-3.42-.29-6.85-.44-10.27.27-1.92.54-3.84.81-5.75Z"/>
      <path class="cls-27" d="M886.28,238.88c5.32,2.74,10.99,2.6,16.71,2.01,34.85-3.6,69.81-4.6,104.82-4.07,2.75.04,5.49-.02,7.47-2.4,1.77-1.7,3.69-3.07,6.3-2.99,3.46.26,6.54,3.48,10.32,1.32.8-.37,1.63-.63,2.48-.83,2.18-.31,3.85-2.1,6.11-2.19,3.02.13,5.87,1.34,8.91,1.36,1.93.37,3.85.74,5.73-.32,2.15-.72,4.33-.75,6.53-.47,5.93,1.06,11.83.82,17.73-.3,4.71-1.09,9.53-.12,14.24-.89,1.84.26,3.59-.11,5.29-.88,4.95-1.21,9.96-1.24,14.99-.86,6.5.12,9.21-5.21,12.65-9.17,4.69-5.39,8.24-11.66,12.44-17.43,3.7-5.08,6.57-3.8,8.07,1.9-.15,1.99.25,4.06-.82,5.92.56,1.72,1.12,3.44,1.67,5.16,0,1.59-.8,2.17-2.32,1.86-3.26,9.79-6.52,19.57-9.78,29.36-3.47,3.58-7.93,3.33-12.38,3.28-35.39-.44-70.8-.92-106.17,0-60.22,1.57-120.43.26-180.64.76-5.6.05-11.81,1.37-15.85-4.49,8.68-3.35,17.74-.67,26.58-1.65,4.59-4.98,10.67-2.8,16.1-3.09,7.59-.4,15.26.78,22.82-.92Z"/>
      <path class="cls-31" d="M1223.75,218.43c-18.56-4.22-31.11,3.46-39.79,19.59-1.51,2.8-4.79,4.64-7.26,6.93-2.03-3.13-4.73-5.49-7.7-7.77-2.23-1.71-2.62-4.07,1.4-4.44,5.26,5.36,9.38,5.06,12.89-2.06,8.79-17.81,22.16-23.95,42.77-22.2,36.54,3.11,73.38,2.81,110.09,3.93,1.93,2.49,1.01,5.23.71,7.93-.66.97-1.54,1.66-2.62,2.1-1.68.59-3.41.68-5.17.49-6.3-1.66-12.74-1.64-19.2-1.49-23.09.51-46.19-1.07-69.24.94-5.98.19-12.09.89-16.87-3.97Z"/>
      <path class="cls-15" d="M1335.92,220.42c.07-2.66.15-5.33.23-7.99,3.84,2.81,1.97,6.86,2,10.33.33,36.67.49,73.33.7,110,.58,6.26,1,12.53-.23,18.77.03,8.19.07,16.38.1,24.57,1.67,5.37.52,10.85.52,16.25.08,127.45.07,254.9.03,382.34,0,4.06.59,8.18-.58,12.2-.66.8-1.33,1.6-1.99,2.41-2.73-1.58-3.23-4.24-3.41-7.05,2.67-113.56,1.82-227.14,1.91-340.72.02-22.12.16-44.24-.1-66.35-1.12-6.94-1.71-13.94-1.92-20.96-.06-6.16.03-12.33-.02-18.51-.03-1.24-.05-2.48-.07-3.73-.98-7.54-1.39-15.09-.77-22.68,1.95-25.08.3-50.19.87-75.27.11-4.68-.81-9.6,2.71-13.62Z"/>
      <path class="cls-35" d="M1190.43,787.32c-39.82,1.05-79.07,7.66-118.44,12.82-11.83,1.55-18.61-6.83-28.23-8.95-2.17-2.34-7.25-3.24-4.06-8.22,1.94-.9,3.96-1.37,5.82-.02,18.89,13.71,39.9,8.26,60.11,5.74,18.25-2.27,36.68-.26,54.78-3.71,11.49-4.66,23.53-2.86,35.38-2.97,4.94.02,9.99.53,14.28-2.85,2.46-.95,4.98-1.1,7.57-.72,5.37,1.88,11.53.99,16.4,4.65,1.68,1.54,2.72,3.31,1.95,5.68-2.06.02-4.13.03-6.19.05-13.06-2.07-26.31.73-39.37-1.5Z"/>
      <path class="cls-8" d="M649.01,382.09c-.12-1.88-.24-3.76-.35-5.65-.24,9.94-1.71,19.67-1.79,29.45-.02,2.16,1.56,6.13-3.54,4.88,0-2.1-.02-4.2-.03-6.29.58-7.5,1.66-15.01-.55-22.44-2.55-46.32-4.13-92.67-4.07-139.07,4.56-6.7.54-14.57,2.88-22.11,2.29,3.39,1.26,6.72,1.21,9.78-.57,39.43,4.53,78.53,6.45,117.8.54,11.03,5.24,22.53-.2,33.65Z"/>
      <path class="cls-44" d="M1235.98,788.77c-.67-1.23-1.35-2.47-2.02-3.7-1.22-1.44-1.23-2.98-.35-4.58,1.75-1.61,3.88-2.03,6.16-1.95,5.81,1.6,11.62,1.57,17.42-.15,1.75-.22,3.48-.17,5.22.07,19.89,2.99,39.86,1.24,59.8,1.03,1.22-.24,2.44-.26,3.66-.15,3.51.77,7.39.58,10.06,3.68.25,2.1.51,4.2.76,6.3-.4.51-.71,1.08-.91,1.7-33.27-.74-66.54-1.49-99.81-2.23Z"/>
      <path class="cls-49" d="M782.43,211.71c3.26.25,6.52.51,9.77.76-2.36,11.24-11.17,7.73-18.32,8.02-5.68-4.15-12.18-1.05-18.2-2.1-2.27-.39-7.41,1.44-4.06-4.35,10.27-.78,20.54-1.55,30.8-2.33Z"/>
      <path class="cls-49" d="M1170.4,232.75c-2.42,6.4,7.65,6.36,6.3,12.2-8-5.4-14.66-12.53-23.35-17.16-4.26-2.27-7.55-6.59-7.75-12.16.78-.62,1.55-1.24,2.33-1.86,7.44,6.38,16.26,11.15,22.48,18.98Z"/>
      <path class="cls-16" d="M1146.25,208.6c-.09-2.21-.18-4.42-.28-6.63-2.02-3.84-2.07-8.34-4.07-12.19-8.82-1.18-18.05,2.5-26.56-2.27,10.69-2.05,21.46.29,32.17-.58,4.37-.36,5.39,1.66,4.14,5.45-1.78,5.41-3.6,10.82-5.4,16.22Z"/>
      <path class="cls-22" d="M642.75,382.04c3.63,7.39,2.86,14.9.55,22.44-.18-7.48-.37-14.96-.55-22.44Z"/>
      <path class="cls-24" d="M759.37,447.55c3.48,2.78-.31,10.5,10.3,9.75,7.64-.53,18.64,4.51,25.51,12.13,4.8,5.33,4.68,11.38.77,16.59-3.7,4.92-11.61,8.01-8.05,15.72,3.6,7.81,12.35,9.15,19.64,10.96,9.48,2.36,19.54,2.32,29.05,4.58,12.17,2.89,24.14,6.51,32.71,17.03,11.99,14.71,7.79,27.3-4.08,38.17-14.9,13.65-14.55,21.22,1.74,33.09,5.48,3.99,10.91,8.08,16.13,12.39,16.61,13.69,18.24,40.71,5.6,53.64-5.09,5.21-10.4,6.9-17.08,7.14-10.49.37-20.96-.83-31.49,1.6-11.95,2.75-22.2,9.33-21.96,21.32.41,20.28-9.45,38.82-7.67,58.98-7.02-3.83-5.81-11.25-5.71-16.84.62-33.99-9.09-65.85-19.34-97.53-9.95-30.77-18.96-61.66-23-93.88-1.66-13.21-.69-26.45-1.8-39.68-1.58-18.92-3.07-37.85-4.58-56.79.59-2.99.26-6.34,3.32-8.34Z"/>
      <path class="cls-2" d="M1240.11,781.02c-2.05-.01-4.1-.03-6.14-.04-5.46,2.04-10.91,1.4-16.36-.02-2.73,0-5.47,0-8.2,0-4.57,2.73-9.16-.12-13.75.04-1.17-.7-.3,1.38.23.12.13-.3.4-.11,1,.17,1.59.76,2.99,1.57,2.21,3.71-12.9,0-25.79-.02-38.69-.02,1.74-.92,3.48-1.84,5.58-2.95-11.31-2.81-13.63-12.69-15.55-21.75-2.59-12.26,3.55-24.79,14.99-30.15,9.06-4.25-2.3-7.59.81-11.47,5.65,2.91,7.7,9.68,13.87,12.4,9.79,4.32,16.56,1.72,18.92-8.71,1.4-6.22,1.04-12.91,4.79-18.5,10.56-15.78,26.84-20.77,43.84-8.98,12.55,8.7,19.88,3.12,28.86-2.95,2.51-1.69,4.39-4.28,6.75-6.22,3.24-2.66,5.4-8.22,10.72-6.11,5.19,2.06,6.93,7.13,7.51,12.49.18,1.68.62,3.34.97,5,3.82,17.78,13.32,23.32,31.68,18.47,2.33,20.65.52,41.37.97,62.05.15,6.82-6.46,2.96-9.15,5.39h-.99s-.99,0-.99,0c-16.45-2.17-32.98-.32-49.45-1.01-4.66-.2-9.44,1.05-13.99-.94-1.37.02-2.73.03-4.1.05-5.45,1.47-10.9,1.54-16.35-.04Z"/>
      <path class="cls-2" d="M1335.91,310.34c.09,7.53.18,15.06.27,22.59-7.79,3.06-17.55,1.42-22.57,11.17-2.14,4.15-7.15,2.78-8.64-1.6-3.1-9.11-10.08-9.13-17.31-8.03-3.94.6-7.34.37-10.73-1.51-5.52-7.09-12.32-10.31-21.75-10.48-23.05-.41-33.51-13.97-28.58-37.03,1.79-8.37-.9-14.72-6.64-18.58-10.8-7.26-7.87-15.83-3.95-24.46,3.52-7.76,6.94-15.4,7.74-23.98,5.46,0,10.91,0,16.37,0,19.59,2.24,39.24.42,58.86.98,4.07.12,8.15.02,12.22.02,6.29.55,12.71-1.15,18.91,1.02,1.34.02,2.68.05,4.03.07,2.33,9.98.72,20.1,1.03,30.14.61,19.88-.82,39.79.76,59.67Z"/>
      <path class="cls-48" d="M759.39,455.7c5.75,35.19,4.14,70.96,8.42,106.23,2.82,23.23,9.2,45.84,16.52,68.03,13.08,39.69,26.49,79.24,24.24,121.95-.16,3.02-.38,6.17,1.91,8.71-.04,4.66-.09,9.32-.13,13.97-2.81,2.57-5.76,2.77-8.86.51-3.67-5.62-4.13-11.13.55-16.47,1.8-1.42,2.36-3.11,1.54-5.36-14.07-38.94-22.82-79.3-32.39-119.48-8.88-37.27-17-74.69-22.79-112.54-2.91-19.04-7.9-37.86-7.4-57.36-.9-4.77-3.58-10.83,1.86-13.44,6.05-2.9,12.56-1.41,16.52,5.24Z"/>
      <path class="cls-26" d="M820.78,244.53c52.33.12,104.67.28,157,.35,52.68.08,105.36.07,158.04.1.41,7.5-5.91,7.38-9.95,7.18-50.03-2.6-100.01.3-150.01.78-55.87.54-111.76-.13-167.63.46-10.08.11-13.43-3.93-13.85-12.57-.29-6.12-.09-12.25-.11-18.38.46.89,1.17,1.74,1.34,2.68q3.66,21.03,25.17,19.41Z"/>
      <path class="cls-4" d="M1035.93,758.62c-11.1,24.61-34.25,29.65-57.1,35.24-7.76,1.9-13.13-2.57-18.18-7.08-6.83-6.11-12.69-17.13-19.87-17.93-6.8-.75-14.7,9.07-22.24,14.05-5.21,3.44-10.84,4.78-17.34,4.57-29.57-.98-59.13-1.93-88.62-4.41-.7-.4-.98-.87-.84-1.39.15-.55.32-.83.52-.83.24-6.69,4.89-6.08,9.46-5.8,21.56,1.32,43.18,2.02,64.67,4.05,18.31,1.73,34.06-2.87,47.69-14.99,6.41-5.7,10.11-4.8,14.37,3.17,7.01,13.13,23.68,19.32,38.29,15.69,7.22-1.79,14.28-4.4,21.59-5.67,12.56-2.18,16.7-14.04,25.22-20.81.89.61,2.14.81,2.39,2.13Z"/>
      <path class="cls-2" d="M1336.17,335.04c-.07,6.13-.14,12.26-.21,18.39-.82.75-1.51.64-2.05-.33-3.87-1.35-10.09-.11-8.92-7.02-2.52,8.58,6.54,4.62,9.3,7.5,1.3,6.33.98,12.72.79,19.1-.29.4-.58.8-.88,1.2-6.85-17.44-18.78-18.97-30.89-3.85-3.15,3.94-6.68,7.85-8.67,12.38-3.26,7.39-7.73,5.56-9.95.8-5.24-11.26-11.01-8.29-18.25-1.72,5.51-9.18,15.34-15.89,12.52-28.07,1.6-2.35,1.39-5.24,1.79-7.8.8-5.18.79-11.08,7.59-11.24,7.32-.18,6.67,6.21,7.14,11.27-.21-2.99-.4-6.12,2.96-7.18,3.22-1.02,4.92,1.34,6.05,4.05,1.16,2.79,1.99,6.49,5.7,6.22,3.65-.26,3.8-4.35,5.07-6.95,3.7-7.54,9.93-9.62,20.9-6.74Z"/>
      <path class="cls-3" d="M1325.98,782.96c6.93-1.97,8.6-6.61,8.41-13.55-.51-17.95-.2-35.92-.22-53.88,0-113.88.02-227.76.03-341.64,0,0,0,0,0,0,.58-1.1,1.15-1.09,1.7.02.11,11.56.33,23.11.32,34.67-.07,124.81-.18,249.62-.28,374.43-3.32-.02-6.64-.03-9.96-.05Z"/>
      <path class="cls-18" d="M812.27,780.84c.11.74.21,1.48.32,2.22-4.23-.14-8.47-.28-12.7-.42-2.13-.71-4.94-.99-3.77-4.37.95-2.74,2.82-4.4,6.02-3.62,2.74-.01,5.48-.02,8.21-.04.29,2.18.11,4.51,1.92,6.23Z"/>
      <path class="cls-40" d="M1035.93,758.62c-.8-.71-1.6-1.42-2.39-2.13,3.21-3.87,6.42-7.75,9.76-11.78,3.5,3.94.68,5.71.38,7.81-1.09,1.53-2.12,3.11-3.82,4.06-1.31.68-2.62,1.37-3.93,2.05Z"/>
      <path class="cls-45" d="M1039.86,756.57c.8-1.79,1.77-3.43,3.82-4.06.59,2.98.45,5.83-1.57,8.32-.75-1.42,0-3.62-2.25-4.26Z"/>
      <path class="cls-30" d="M736.44,732.1c-3.98.02-7.95.05-11.93.07-1.05.48-2.05.4-3.03-.21-3.72-4.11-7.12-8.29-3.11-14.11,13.94,4.72,29.49,5.33,41.08,16.06,0,0,.01,0,.01,0,.05,4.18-2.54,2.86-4.71,2.2-6-1.82-12.13-3.01-18.31-4.01Z"/>
      <path class="cls-14" d="M718.37,717.85c-.03,5.07,3.4,8.96,4.64,13.6-4.71,5.08-9.6,4.99-14.64.49-.61-.48-1.22-.97-1.83-1.45-.05-1.51-.09-3.01-.14-4.52,3.68-6.66-.06-14.64,3.95-22.56,2.99,5.39,5.5,9.91,8.01,14.43Z"/>
      <path class="cls-39" d="M802.14,774.65c-2.08,2.29-6.74,3.86-2.25,7.99-.52.35-1.08.62-1.67.81-4.4,5.15-9.99,8.23-16.59,9.55l.06-.11c-5.54,7.5-14.43,7.52-22.13,8.59-22.5,3.12-45.4,6.1-67.27-2.71-10.44-4.21-21.26-8.43-29.73-16.58-3.27-3.15-6.91-5.94-3.94-11.19,1.95.46,3.21-8.77,5.79-.38.73,2.39,2.77,3.56,5.09,4.56,17.91,7.74,35.24,17.53,55.57,17.1,18.09-.38,36.48,1.73,52.99-9.4,11.53-7.77,14.01-19.85,4.78-30.66-.79-.92-6.09-1.92-.68-4.13,8.39-3.37,11.83,3.18,16.12,8.03,1.25.84,2.51,1.67,3.76,2.51.03,5.34.06,10.67.09,16.01Z"/>
      <path class="cls-32" d="M798.28,756.13c-5.88-1.66-9.92-7.03-16.13-8.03-4.55-4.71-11.78-3.86-16.6-8.01-.51-.49-.67-.97-.47-1.43.2-.45.39-.67.57-.67,4.93,2.22,10.08,3.39,15.44,4.36,7.86,1.42,16.32,3.16,17.18,13.77Z"/>
      <path class="cls-5" d="M736.91,365.71c0,20.45,0,40.89,0,61.34-3.81-5.14-2.14-11.1-1.86-16.57.74-14.92-2.7-30.03,1.86-44.77Z"/>
      <path class="cls-43" d="M765.66,737.99c-.04.7-.07,1.4-.11,2.1-9.7-2.66-19.41-5.32-29.12-7.99,7.89-2.23,15.09,4.46,23.02,1.81,2.07,1.36,4.14,2.72,6.21,4.08Z"/>
      <path class="cls-5" d="M734.9,345.23c4.59,5.7,1.79,12.22,2.02,18.4-4.61-5.7-1.78-12.22-2.02-18.4Z"/>
      <path class="cls-1" d="M886.28,238.88c-3.45,5.13-8.95,3.73-13.71,3.94-8.39.37-16.8.08-25.21.06-12.04-3.89-24.57-1.97-36.83-2.61-6.66-.35-9.15-2.46-10.14-8.26-1.54-9.01-1.99-18.06-2.28-27.2-.26-8.24,2.15-12.14,10.82-11.01,2.92.38,5.94.06,9.12.06.27,4.54-6.79,8.2-1.74,12.7,1.72,1.53,3.05-1.96,4.82-2.72l-.08-.06c3.22,5.72,3.78,11.73,3.45,18.31-.24,4.86-1.85,11.62,4.6,14.07,6.03,2.28,10.14-.99,12.47-6.89,1.32-3.34,3.9-1.25,6.01-.7,1.61-.42,2.25.39,2.36,1.87-3.7,3.92-.67,5.34,2.55,6.08,2.53.58,4.98.86,6.34-2.93,1.8-5.02,2.96-10.11,3.31-15.73,1.27.71,2.27,1.12,2.23,1.27-5.17,20.46,10.81,17.41,21.92,19.76Z"/>
      <path class="cls-19" d="M1141.9,189.78c8.11,1.81,3.55,7.85,4.07,12.19-1.75-1.29-2.9-3.5-4.71.64-3.91,8.94-10.75,16.02-16.72,23.63-2.49,3.17-5.48,4.81-9.54,4.33-2.01-4.89-9.36-2.61-10.88-7.9-1.87-6.52-3.72-13.21,2.39-18.68-13.24-1.97-26.44-.54-39.61-.8-1.69.24-3.34.12-5-.21-4.54-2.08-10.32-.79-14.07-5.07-2.29-2.67-5.64-6.13,1.42-5.96,21.26.5,42.51-1.24,63.82,1.09,9.44,1.03,20.07,4.88,28.83-3.25Z"/>
      <path class="cls-6" d="M1017.16,197.81c-.61.21-1.24.37-1.88.47-28.68.7-57.44-2.24-86.06,1.69-11.6-.55-23.47,3.42-34.79-2.02-2.72,0-5.45,0-8.17,0-8.86,1.28-17.73,1.91-26.59,0-3.83-1.09-11.07,2.59-10.86-3.19.18-4.73,6.82-.62,10.42-.68,26.08-.43,52.43,2.03,78.2-.87,25.38-2.86,50.81,3.49,75.94-2.91,7.35-1.87,2.67,4.87,3.8,7.52Z"/>
      <path class="cls-1" d="M898.29,202.18c-.66-.07-1.29-.25-1.89-.55-.66-1.23-1.32-2.45-1.98-3.68,11.61.4,23.5-3.91,34.79,2.02,0,0-.04.05-.04.05-5.08,3.11-10.56-.01-15.76,1.01-3.46.68-7.36-1.67-10.43,1.55v-.3c-.72.52-1.5.87-2.37,1.03-.88-.16-1.64-.54-2.31-1.12Z"/>
      <path class="cls-19" d="M1033.65,197.28c-2.66-.56-5.89-1.04-6.48-3.94-.69-3.38,2.58-3.33,4.83-3.45,2.72-.14,5.96-.06,6.48,3.31.47,3.06-2.58,3.38-4.83,4.08Z"/>
      <path class="cls-7" d="M902.98,202.58c8.27-5.59,17.51-1.22,26.2-2.56-2.08,2.7-4.16,5.39-6.24,8.09.85-4.15-.57-6.38-5.07-6.16-4.96.25-9.92.42-14.88.63Z"/>
      <path class="cls-1" d="M887.27,224.26c.41,2.72.81,5.45,1.22,8.17-1.8,1.96-4.46,3.14-5.46.2-1.18-3.44-1.92-8.03,4.25-8.37Z"/>
      <path class="cls-1" d="M859.66,197.95h26.59c-8.86,3.25-17.73,3.26-26.59,0Z"/>
      <path class="cls-7" d="M902.27,232.5c.09-1.27.19-2.53.28-3.8-.79-6.28-2.88-12.71,2.05-18.35,3.55,6.53,1.46,13.6,1.97,20.42-1.43.57-2.87,1.15-4.3,1.72Z"/>
      <path class="cls-3" d="M1190.43,787.32c13.13.25,26.37-2.16,39.37,1.5-13.14.04-26.3.52-39.37-1.5Z"/>
      <path class="cls-46" d="M687.69,762.38c6.25-12.07,17.9-14.84,29.7-16.17,17.4-1.96,33.51,2.8,48.42,11.82,2.46,5.04-1.14,7.6-4.34,10.08-15.67,12.14-57.04,11.3-71.91-1.38-1.29-1.1-2.43-2.4-1.86-4.36Z"/>
      <path class="cls-36" d="M687.69,762.38c18.69,11.29,38.79,13.03,59.6,8.15,7.52-1.76,15.03-4.36,18.52-12.49,9.15,4.94,10.38,10.73,3.68,18.05-1.58,1.73-3.45,3.29-5.43,4.53-18.23,11.41-53.47,9.86-70.69-3.15-4.97-3.75-9.86-7.78-5.68-15.08Z"/>
      <path class="cls-13" d="M708.37,731.94c4.88-.16,9.76-.33,14.64-.49.54.16,1.04.4,1.5.72-.08,5.33-2.16,10.16-7.89,9.33-4.12-.6-10.81-1.87-8.25-9.55Z"/>
      <path class="cls-11" d="M1021.58,232.83c-.37-2.77.06-4.78,3.62-3.82.71,4.74,5.19,4.33,8.16,5.98-4.71,3.54-8.46,1.88-11.78-2.16Z"/>
      <path class="cls-11" d="M1035.25,232.4c.73-2.56,1.46-5.12,2.21-7.76,3.6,1.18,2.03,3.84,2.52,5.74-.57,2.45-1.79,4.21-4.56,4.32-1.16-.69-1.21-1.46-.16-2.31Z"/>
      <path class="cls-28" d="M1335.91,310.34c-2.65-3.25-1.65-7.12-1.67-10.74-.1-26.36-.09-52.71-.12-79.07.6-.05,1.19-.09,1.79-.11,0,29.97,0,59.95,0,89.92Z"/>
      <path class="cls-43" d="M1311.7,220.43c-20.31,0-40.63.05-60.94-.02-3.62-.01-7.53.98-10.65-1.97,23.85.01,47.7.03,71.55.04,1.29.62,1.3,1.27.04,1.95Z"/>
      <path class="cls-28" d="M1311.7,220.43c-.01-.65-.03-1.3-.04-1.95,6.14.71,12.64-1.96,18.44,1.98-6.13,0-12.27-.02-18.4-.03Z"/>
      <path class="cls-43" d="M1335.9,373.9c-.57,0-1.14-.02-1.7-.02-.01-6.82-.03-13.63-.04-20.45l.04-.04c.59,0,1.17.02,1.76.04-.02,6.82-.03,13.65-.05,20.47Z"/>
      <path class="cls-3" d="M1199.1,785c-3.93-4-10.01-.08-16.11-5.49,10.19-.55,18.28-1.98,26.42,1.44-.54,8.72-7.07,2.19-10.31,4.05Z"/>
      <path class="cls-3" d="M1217.61,780.96c5.45,0,10.91.01,16.36.02v4.09c-5.2-2.4-11.41-.72-16.36-4.11Z"/>
      <path class="cls-3" d="M1260.56,781.01c17.93,0,35.86-.04,53.79,0,3.31,0,6.84-.7,9.65,1.94-17.93.02-35.87.06-53.8.02-3.31,0-6.85.74-9.63-1.97Z"/>
      <path class="cls-3" d="M1240.11,781.02c5.45.01,10.9.03,16.35.04-5.46,2.93-10.91,2.99-16.35-.04Z"/>
      <path class="cls-34" d="M904.6,210.36c-1.12,6.07,2.21,12.63-2.05,18.35-2.77,0-4.29-1.14-3.75-4.15,2.25-7.38-.98-15.2,1.84-22.53.78.08,1.55.16,2.33.24.54,2.7,1.09,5.39,1.63,8.08Z"/>
      <path class="cls-7" d="M900.64,202.03c-1.01,7.48,1.79,15.26-1.84,22.53-.17-7.46-.34-14.92-.51-22.38.78-.05,1.56-.1,2.35-.15Z"/>
      <path class="cls-2" d="M1273.35,329.07s9.47.88,6.96,20.41,32.99,3.02,32.99,3.02l20.89,21.38,1.7.02.26-38.86-21.85,1.46-19-8-21.96.57Z"/>
      <path class="cls-43" d="M753.22,316.53s-5.36,16.45-2.39,43.46,41.98,18.01,41.98,18.01l26-32s-23-25-23-26-42.59-3.47-42.59-3.47Z"/>
      <path class="cls-23" d="M759.39,455.7c-1.87-.66-3.69-1.53-5.61-1.95q-12.64-2.75-12.77,10.15c-3.7-4.86-1.74-10.48-1.94-15.75-.27-7.1.26-14.23-2.15-21.1-1.67-20.45-1.66-40.89,0-61.34,0-.69,0-1.38,0-2.07-2.69-5.91.69-12.49-2.02-18.4v-.02c-.12-12.91,7.07-18.63,17.22-13.71,2.65,4.76,2.52,9.35-.84,13.74,1.15,3.34,3.88,5.61.89,10.44-2.45,3.95-1.2,10.52-.78,15.87,1.93,24.15,4.13,48.27,6.33,72.39.11,1.24,1.07,2.4,1.64,3.6,0,2.72.01,5.44.02,8.15Z"/>
      <path class="cls-38" d="M738.97,322.74c1.32-30.01,4.12-59.88,8.43-89.62,1.32-9.12,6.19-12.84,14.92-12.66,3.73.08,7.46.02,11.18.02-7.79,31.8-17.72,63.15-20.29,96.05-2.42,3.43.69,8-2.33,11.31-12.29,4-12.41,3.95-11.92-5.1Z"/>
      <rect class="cls-11" x="817.81" y="197" width="115" height="37"/>
    </g>
  </g>
</svg>