<?xml version="1.0" encoding="UTF-8"?>
<svg id="Capa_2" data-name="Capa 2" xmlns="http://www.w3.org/2000/svg" viewBox="0 0 51.64 52.63">
  <defs>
    <style>
      .cls-1 {
        fill: #fff;
      }
    </style>
  </defs>
  <g id="Capa_1-2" data-name="Capa 1">
    <g>
      <path class="cls-1" d="M0,52.63c.03-5.33,1.53-10.05,4.42-14.35,2.5-3.71,5.78-6.52,9.73-8.59.84-.44,1.53-.49,2.44,0,5.97,3.13,11.98,3.11,17.92-.08,1-.54,1.75-.56,2.72-.04,8.85,4.71,13.69,12.03,14.4,22.05.02.3,0,.61,0,1.02H0Z"/>
      <path class="cls-1" d="M25.74,27.9c-7.82-.05-13.92-6.26-13.86-14.09C11.94,6.13,18.22-.05,25.9,0c7.7.05,13.91,6.31,13.87,13.97-.04,7.82-6.25,13.99-14.03,13.93Z"/>
    </g>
  </g>
</svg>