<?xml version="1.0" encoding="UTF-8"?>
<svg id="Capa_2" data-name="Capa 2" xmlns="http://www.w3.org/2000/svg" xmlns:xlink="http://www.w3.org/1999/xlink" viewBox="0 0 1927 932">
  <defs>
    <style>
      .cls-1 {
        fill: #5b4235;
      }

      .cls-2 {
        fill: none;
      }

      .cls-3 {
        fill: #d4a281;
      }

      .cls-4 {
        fill: #5d4230;
      }

      .cls-5 {
        fill: #cda183;
      }

      .cls-6 {
        fill: #664128;
      }

      .cls-7 {
        fill: #d8ac8f;
      }

      .cls-8 {
        fill: #d9ae93;
      }

      .cls-9 {
        fill: #60412c;
      }

      .cls-10 {
        clip-path: url(#clippath);
      }
    </style>
    <clipPath id="clippath">
      <rect class="cls-2" width="1927" height="932"/>
    </clipPath>
  </defs>
  <g id="Capa_1-2" data-name="Capa 1">
    <g class="cls-10">
      <rect class="cls-1" x="-41.5" y="917" width="185" height="30"/>
      <g>
        <path class="cls-4" d="M-13.26,35.93C-4.3-10.97,5.01-15.57,79.34-19c292.27-13.48,584.94-5.96,877.22-3.54,145.38,1.21,291.35-1.26,436.39,5.23,157.98,7.07,316.29,1.68,474.22,9.36,39.83,1.94,58.77,9.42,66.32,32.08,30.32,30,14.58,65.59,30.06,97.4,5.84,17.79,1.4,36.18,8.04,53.95,12.98,152.78,24.56,305.62,18.96,458.62-2.4,65.47-1.64,131.11-14.85,196.47-6,29.68,1.11,60.37-13.34,89.76-3.44,29.28-30.46,41.04-75.24,45.07-75.58,6.81-150.71,6.61-226.23,1.85-24.85-5.12-50.62-5.18-76.46-6.59-137.88-7.57-276.09-5.21-389.25-5.66,66.75,0,158.43-.13,250.1.14,14.11.04,29.28-2.8,42.18,3.64-7.43,16.37-29.79,17.07-50.18,17.3-91.33,1.06-182.68.86-274.02.15-16.32-.13-31.88-2.3-43.75-10.15-4.71-10.97-18.66-4.72-27.58-4.82-85.19-.92-170.43.9-255.62-1.18-61.59-4.66-123.5-4.73-185.41-5.42-19.55-.22-43.25,3.73-52.9-13.13,8.81-11.3,25.55-10.91,41.79-10.91,103.56.02,207.87-4.9,310.51,1.35,133.85,8.15,267.22,1.75,400.73,4.04,107.5,1.85,214.97-7.63,322.81-5.66,19.47.36,38.79-2.54,56.71-7.3,27.17-7.22,51.79-6.91,78.61,2.42,31.74,11.04,82.94-5.36,92.75-27.81,4.54-10.39-8.46-11.4-18.98-13.65-55.83-20.36-57.55-29.84-34.56-68.01,21.81-36.21,43.94-73.24,38.56-113.51,6.02-72.75-1.54-145.6,5.88-218.25-9.83-43.24-8.52-86.78-8.24-130.29.42-65.79-8.36-131.25-17.58-196.71-2.17-15.41-6.94-29.47-23.43-42.02-17.62-13.41-17.4-29.54-12.48-46.25,8.23-27.95,3.35-31.28-42.5-32.47-57.82-1.51-116.41,3.6-173.1-7.98-65.5-14.48-134.55-7.68-201.7-12.3-170.33-11.74-342.23-3.62-513.12-8.28-172.84-4.71-345.54-3.91-518.31-5.43-64.41-.57-128.16,5.38-193.27,1.8-43.46-2.39-89.78,7.12-115.22,35.37-2.56,4.74-6.18,9.13-11.14,13.04-28.63,5.98-47.41-9.87-72.04-12.92-1.32-1.28-2.62-2.57-3.92-3.87Z"/>
        <path class="cls-1" d="M-12.55,884.7c-.26-4.03-.51-8.06-.77-12.08-5.98-125.47-22.2-250.68-19.8-376.38,2.15-112.56.32-225.15.24-337.72,12.64-20.32,14.58-39.24-3.11-60.16-20.17-23.86-5.48-55.33,22.74-62.42,0,0,2.37,1.91,2.37,1.91,35.9.96,56.51,13.46,59.53,35.06,1.7,12.13,12.16,20.4,20.92,29.88,13.23,24.1-13.2,41.29-30.15,58.48-17.21,17.46-25.79,34.4-23.45,54.4,6.91,59.01-17.93,117.78-7.66,176.43,10.68,60.96,12.37,122.06,6.48,182.63-10.99,113.03,12.24,224.65,23.03,336.83-.79,7.24-3.88,13.79-14.44,17.92-12.98,2.58-20.24-1.94-26.01-8.31l.14.21c-13.16-11.17,2.46-25.45-10.04-36.69Z"/>
        <path class="cls-3" d="M1903.64,707.73c1.21,25.67,1.55,49.37-21.19,74.47-14.18,15.65-12.68,36.53-34.01,54.82-22.94,19.67,24.03,27.53,40.41,40.58,17.8,17.5,5.68,31.68-15.39,42.82-21.19,11.21-48.64,15.9-71.83,4.53-35.94-17.61-67.63-14.96-101.12,1.25-11.85,5.74-26.5,7.45-41.44,7.26-145.5-1.84-290.83,3.99-436.47,2.4-103.39-1.13-206.96-1.32-310.47-1.92-168.36-.98-336.82-1.43-504.92-6.01-99.3-2.71-199.56-1.95-298.09-15.09-37.13-4.95-57.22-16.14-65.28-38.5-10.31-28.59-13.66-56.62,15.04-82.07,12.78-11.33,10.34-20.15-5.02-29.36-14.44-8.65-24.01-19.57-25.53-32.14-7.83-64.79-18.7-129.55-8.2-194.67,14.92-28.42,12.21-57.82,10.85-86.95-2.96-63.37,8.62-126.94-7.07-190.02-7.06-29.48-10.45-58.08,36.24-78.29,15.65-6.77,6.8-16-.56-24.07-13.09-14.36-5.25-22.63,19.4-25.82,13.37,1.19,21.38-3.94,28.67-9.91,6.88-5.35,14.65-10.01,24.46-13.2,77.27-8.83,154.94-10.94,233.17-5.65,24.53,1.66,55.46,8.69,52.85-19.39-3.64-10.23,13.98-19.13,5.59-29.25-8.33-10.05-18.62-18.68-41.26-15.38-17.06,2.49-33.45,7.8-51.85,6.27-15.93-3.39-36.5.36-46.72-11.94-.83-3.68.02-7.13,2.51-10.5,16.27-15.77,42.21-12.8,65.83-12.85,164.84-.32,329.68-.12,494.53-.17,22.61,0,45.28.55,67.58-2.67,231.98-5.2,463.29,9.37,695.09,8.91,5.5-.01,8.76,2.13,12.79,3.67,64.1,7.21,129,3.62,193.49,5.63,43.53,1.36,59.62,18.44,37.65,41.95-17.16,18.37-19.98,34.47,12.08,46.79,12.67,4.87,16.98,10.91,18.4,19.65,18.3,113.06,19.97,226.61,25.57,340.03.14,2.83-2.96,5.73-4.56,8.6-7.98,75.38-10.03,150.77-1.16,226.18Z"/>
        <path class="cls-9" d="M94.43,134.18c-9.99,3-19.97,6-30.17,9.06,43.15,27.49,41.54,31.7-12.08,54.4-32.27,13.66-12.17,34.79-15.62,52.56,9.56,48.14,3.71,96.49,3.73,144.71.02,47.23,5.79,94.58-3.5,141.74-5.3,65.15,5.38,130.04,8.08,195.06.48,11.63,7.62,17.48,23.78,23.42,40.8,15,42.28,28.05,4.84,45-15.76,7.14-20.18,14.19-18.9,25.22,10.22,87.79,4.97,75.83,123.97,83.68,148.3,9.79,297.49,10.7,446.48,13.51,335.49,6.32,671,5.7,1006.54,3.11,25.51-.2,48.04-.35,68.67-15.55,19.4-14.3,51.63-16.14,80.55-5.26,69.12,26.01,89.63,20.88,108.03-27.24,10.42-9.88,21.06-12.33,32.65-.63,10.11,10.21,17.92,24.92.96,30.05-25.29,7.65-37.61,24.27-65.14,29.9-21.04,4.31-37.66,9.86-56.47-2.88-10.97-7.43-31.88-13.42-43.85-6.67-32.77,18.46-70.62,11.42-106.63,12.13-130.44,2.58-260.9,4.87-391.39,6.16-219.65,2.18-439.01-10.07-658.73-5.93-5.05,3.97-11.47,6.62-19.3,7.91-17.79,1.65-35.69,1-53.53.84-4.89-.07-9.76-.44-14.56-1.01-22.46-6.58-45.58-5.65-68.9-2.17-23.77-.75-47.62,1.77-71.36-.62-42.34-13.27-86.61-6.54-130.39-4.98-9.93-.02-19.85.1-29.76-.41-21.56-4.22-44.37-1.27-66.1-4.49-4.75-.68-9.54-1.28-14.35-1.78-22.7-4.79-44.79-11.45-70.04-7.01-16.32,2.88-28-1.56-35.71-10.66-22.23-35.48-6.41-73.65-19.51-109.72-33.22-91.39.27-183.61-9.34-275.3-4.55-43.4-.58-86.79-7.82-130.5-11.86-71.54,14.29-143.32,7.9-215.6-1.44-16.28,30.78-34.12,49.06-50.55,13.06-11.74,18.79-23.28,8.63-36.74-1.19-5.93,4.64-8.27,12.48-9.62,13.87-.66,25.43,2.5,35.47,8.3,17.75,14.66,15.15,27.56-8.67,38.56Z"/>
        <path class="cls-6" d="M1622.17,18.9c-198.37-2.2-396.74-4.5-595.12-6.52-38.69-.39-77.41.3-116.11.49-81.9,4.91-163.98,1.33-245.97,2.02-78.92.67-157.9,1-236.8-.12-66.08-.94-131.55,2.46-197.02,6.36-32.51.72-65.54-2.5-97.3,4.52-29.56-.54-49.71,15.4-77.68,17.72-2.76-16.99,7.08-24.45,34.31-33.32C169.5-15.71,252.68-2.71,333.1-5.1c143.62-4.26,288.27-5.84,431.6.02,166.47,6.81,332.77.35,498.78,5.59,110.9,3.5,221.49,11.3,332.75,11.64,10.09.03,19.09,1.79,25.95,6.74Z"/>
        <path class="cls-3" d="M56.17,43.36c11.24-18.69,30.69-29.34,64.49-25.96,30.89-6.07,60.08.42,90.26,3.46,19.26,1.94,41.05,1.83,60.17-4.55,21.64,1.21,7.39,14.99,17.92,20.09l-.04-.03c4.7,2.23,10.92,2.39,15.74,4.46,7.42,4.26,16.91,6.08,25.94,8.48,7.82,2.34,14.7,5.37,19.33,10.07,1.45,2.55,1.73,5.16.75,7.8-3.68,4.74-10.51,7.82-15.59,11.78-.3,19.23-14.34,28.92-45.48,23.36-29.67-5.3-57.5,3.53-86.22,2.62-21.36-.68-43.52-3.67-53.13-17.45-10.36-14.86,3.57-24.72,20.38-31.58-18.2,5.68-25.82,17.18-27.26,30.55-1.09,10.16-.37,20.4-10.18,29.3-6.42,4.03-12.84,8.07-19.27,12.1-11.51-8.89,3.31-24.36-19.34-30.47-9.67-2.19-19.33-4.39-29-6.58-27.89-9.32-23.04-22.34-10.39-36.23.3-3.74.6-7.48.9-11.22Z"/>
        <path class="cls-8" d="M1903.64,707.73c-10.45-6.32-9.51-14.55-9.52-22.59-.03-59.42-.06-118.83.04-178.25.01-8.98-1.69-18.35,10.64-25.34,6.06,75.4,2.98,150.79-1.16,226.17Z"/>
        <path class="cls-4" d="M55.28,54.58c3.28,12.1-6.83,25.71,10.39,36.23-3.5,2.05-7.01,4.1-10.51,6.14-15.65,4.12-20.29-.68-19.83-9.62,1.18-22.69-2.38-43.26-50.13-44.03,1.3-1.82,2.6-3.65,3.91-5.46,28.41-4.29,53.35-3.21,66.17,16.74Z"/>
        <path class="cls-3" d="M133.27,115.76c-21.53-23.24-.88-42.17,21.36-57.44,18.49-12.7,46.09-20.61,78.04-10.11-11.23,10.73-27.98,5.59-40.4,9.13-16.4,4.67-36.55,7.5-34.8,21.33,1.73,13.63,22.77,16.68,39.72,17.87,40.94,2.88,81.48-9.7,127.9,3.12q-20.66-22.13,2.79-26.64c31.51,7.06,60.51,21.98,97.38,12.24,16.76-3.93,23.51.81,14.78,9.57-15.89,15.94-39.36,22.53-70.54,18.05-78.98-11.34-157.57-1.26-236.24,2.87Z"/>
        <path class="cls-3" d="M289.01,36.4c-6.58-6.05-13.16-12.11-19.74-18.16-17.92,4.95-36.07,10.71-47.84-5.47,229.84-4.48,459.67-2.97,689.51.1-17.15,8.43-37.31,5.06-56.2,5.09-169.68.25-339.35.04-509.03.25-23.19.03-51.2-4.25-56.7,18.19Z"/>
        <path class="cls-3" d="M425.26,85.27c-35.76,20.98-56.01,18.43-97.38-12.24,6.5-2.04,13-4.08,19.5-6.12q36.27,2.52,63.18-3.86c-20.11-17.33-43.06,3.81-63.25-2.23-6.48-2.03-12.96-4.06-19.44-6.1-5.19-3.07-7.81-6.78-7.15-11.31,1.34-2.75,3.67-5.09,7.15-6.98,9.42-.96,19.73-.7,28.1-3.11,29.17-8.39,54.58-8.13,77.06,8.33,22.81,16.7,1.47,29.56-7.76,43.6Z"/>
        <path class="cls-7" d="M36.79,536.66c-5.05-95.48-5.68-190.97-.23-286.46,8.8,5.57,9.18,12.66,9.18,19.84-.02,82.23-.01,164.47,0,246.7,0,7.18-.31,14.28-8.95,19.91Z"/>
        <path class="cls-5" d="M94.66,97.39c28.57,4.63,16.26,19.47,19.34,30.47-4.86,4.13-6.51,12.17-19.57,6.32,15.66-12.23,13.62-24.49.23-36.79Z"/>
        <path class="cls-3" d="M327.85,36.44v6.07c-9.67,4.9-19.36,5.31-29.09.06-3.27-2.07-6.53-4.14-9.8-6.21,12.99-5.22,25.95-5.22,38.88.08Z"/>
        <path class="cls-3" d="M221.43,12.77c14.09,8.21,31.68,4.38,47.84,5.47-4.22,6.33,15.46,18.27-22.97,14.59-42.28-4.05-82.38-15.65-125.62-15.43,32.88-7.43,66.87-5.59,100.75-4.63Z"/>
        <path class="cls-3" d="M347.29,60.82c17.81-15.3,39.05-26.07,67.59-11.02,12.33,6.5,11.74,14.57-2.79,24.55-31.33,21.54-46.26,5.03-64.72-7.44-.04-2.03-.07-4.06-.08-6.09Z"/>
        <path class="cls-3" d="M298.77,42.58c9.7-.02,19.39-.04,29.09-.06v12.21c-10.95-2.86-36.21,7.76-29.09-12.15Z"/>
      </g>
    </g>
  </g>
</svg>